<svg xmlns="http://www.w3.org/2000/svg" viewBox="0 0 900 520" role="img" aria-labelledby="title">
  <title id="title">Intelligence feed dashboard</title>
  <defs>
    <linearGradient id="bg" x1="0" x2="1" y1="0" y2="1">
      <stop offset="0" stop-color="#111827"/>
      <stop offset="0.52" stop-color="#7e22ce"/>
      <stop offset="1" stop-color="#db2777"/>
    </linearGradient>
    <linearGradient id="panel" x1="0" x2="1">
      <stop offset="0" stop-color="#fff" stop-opacity="0.16"/>
      <stop offset="1" stop-color="#fff" stop-opacity="0.05"/>
    </linearGradient>
  </defs>
  <rect width="900" height="520" fill="url(#bg)"/>
  <circle cx="720" cy="120" r="150" fill="#f9a8d4" opacity="0.16"/>
  <circle cx="135" cy="400" r="160" fill="#c084fc" opacity="0.18"/>
  <rect x="100" y="88" width="700" height="344" rx="30" fill="#020617" opacity="0.48"/>
  <rect x="145" y="130" width="250" height="250" rx="20" fill="url(#panel)" stroke="#f5d0fe" stroke-opacity="0.22"/>
  <rect x="430" y="130" width="325" height="58" rx="16" fill="url(#panel)" stroke="#f5d0fe" stroke-opacity="0.18"/>
  <rect x="430" y="216" width="325" height="58" rx="16" fill="url(#panel)" stroke="#f5d0fe" stroke-opacity="0.18"/>
  <rect x="430" y="302" width="325" height="58" rx="16" fill="url(#panel)" stroke="#f5d0fe" stroke-opacity="0.18"/>
  <path d="M190 328c38-82 78-102 122-66 31 25 58 4 75-46" fill="none" stroke="#f0abfc" stroke-width="16" stroke-linecap="round" opacity="0.8"/>
  <path d="M465 160h205M465 246h165M465 332h230" stroke="#fff" stroke-width="13" stroke-linecap="round" opacity="0.7"/>
  <circle cx="690" cy="160" r="10" fill="#f9a8d4"/>
  <circle cx="650" cy="246" r="10" fill="#c084fc"/>
  <circle cx="720" cy="332" r="10" fill="#f0abfc"/>
</svg>
